HIERARCHY
ROOT root
{
  OFFSET 0 90.5966 0
  CHANNELS 6 Xposition Yposition Zposition Zrotation Xrotation Yrotation
  JOINT torso_1
  {
    OFFSET 0 4.93189 -1.1181
    CHANNELS 6 Xposition Yposition Zposition Zrotation Xrotation Yrotation
    JOINT torso_2
    {
      OFFSET 0 5.45428 1.04046
      CHANNELS 6 Xposition Yposition Zposition Zrotation Xrotation Yrotation
      JOINT torso_3
      {
        OFFSET -9.96389e-18 5.81666 0.111686
        CHANNELS 6 Xposition Yposition Zposition Zrotation Xrotation Yrotation
        JOINT torso_4
        {
          OFFSET -1.07264e-17 6.3178 -0.430704
          CHANNELS 6 Xposition Yposition Zposition Zrotation Xrotation Yrotation
          JOINT torso_5
          {
            OFFSET -1.91593e-17 7.38567 -1.4624
            CHANNELS 6 Xposition Yposition Zposition Zrotation Xrotation Yrotation
            JOINT torso_6
            {
              OFFSET -2.45986e-17 9.22288 -0.888062
              CHANNELS 6 Xposition Yposition Zposition Zrotation Xrotation Yrotation
              JOINT torso_7
              {
                OFFSET -2.82008e-17 10.2464 1.53133
                CHANNELS 6 Xposition Yposition Zposition Zrotation Xrotation Yrotation
                JOINT neck_1
                {
                  OFFSET -1.25459e-17 4.64811 0.694664
                  CHANNELS 6 Xposition Yposition Zposition Zrotation Xrotation Yrotation
                  JOINT neck_2
                  {
                    OFFSET -1.75924e-17 4.68175 0.4096
                    CHANNELS 6 Xposition Yposition Zposition Zrotation Xrotation Yrotation
                    JOINT head
                    {
                      OFFSET -1.9515e-17 4.6908 0.74295
                      CHANNELS 6 Xposition Yposition Zposition Zrotation Xrotation Yrotation
                      End Site
                      {
                        OFFSET 0 0.1 0
                      }
                    }
                  }
                }
                JOINT l_shoulder
                {
                  OFFSET 1.19736 -7.38744 7.31601
                  CHANNELS 6 Xposition Yposition Zposition Zrotation Xrotation Yrotation
                  JOINT l_up_arm
                  {
                    OFFSET 12.5803 3.15559 -3.17425
                    CHANNELS 6 Xposition Yposition Zposition Zrotation Xrotation Yrotation
                    JOINT l_low_arm
                    {
                      OFFSET 28.3639 0.0580795 0.133078
                      CHANNELS 6 Xposition Yposition Zposition Zrotation Xrotation Yrotation
                      JOINT l_hand
                      {
                        OFFSET 23.5335 0.0481878 0.110415
                        CHANNELS 6 Xposition Yposition Zposition Zrotation Xrotation Yrotation
                        End Site
                        {
                          OFFSET 0.1 0 0
                        }
                      }
                    }
                  }
                }
                JOINT r_shoulder
                {
                  OFFSET -1.19736 -7.38743 7.31591
                  CHANNELS 6 Xposition Yposition Zposition Zrotation Xrotation Yrotation
                  JOINT r_up_arm
                  {
                    OFFSET -12.5803 3.15559 -3.17425
                    CHANNELS 6 Xposition Yposition Zposition Zrotation Xrotation Yrotation
                    JOINT r_low_arm
                    {
                      OFFSET -28.3639 0.0580795 0.133078
                      CHANNELS 6 Xposition Yposition Zposition Zrotation Xrotation Yrotation
                      JOINT r_hand
                      {
                        OFFSET -23.5335 0.0481876 0.110415
                        CHANNELS 6 Xposition Yposition Zposition Zrotation Xrotation Yrotation
                        End Site
                        {
                          OFFSET -0.1 0 0
                        }
                      }
                    }
                  }
                }
              }
            }
          }
        }
      }
    }
  }
  JOINT l_up_leg
  {
    OFFSET 8.96978 -4.08401 1.97395
    CHANNELS 6 Xposition Yposition Zposition Zrotation Xrotation Yrotation
    JOINT l_low_leg
    {
      OFFSET -0.827718 -37.6515 -0.63625
      CHANNELS 6 Xposition Yposition Zposition Zrotation Xrotation Yrotation
      JOINT l_foot
      {
        OFFSET -2.25899 -39.2341 -5.87393
        CHANNELS 6 Xposition Yposition Zposition Zrotation Xrotation Yrotation
        JOINT l_toes
        {
          OFFSET 0.756579 -9.59872 12.1348
          CHANNELS 6 Xposition Yposition Zposition Zrotation Xrotation Yrotation
          End Site
          {
            OFFSET 0 0 0.1
          }
        }
      }
    }
  }
  JOINT r_up_leg
  {
    OFFSET -8.96978 -4.08401 1.97395
    CHANNELS 6 Xposition Yposition Zposition Zrotation Xrotation Yrotation
    JOINT r_low_leg
    {
      OFFSET 0.827718 -37.6515 -0.63625
      CHANNELS 6 Xposition Yposition Zposition Zrotation Xrotation Yrotation
      JOINT r_foot
      {
        OFFSET 2.25899 -39.2341 -5.87393
        CHANNELS 6 Xposition Yposition Zposition Zrotation Xrotation Yrotation
        JOINT r_toes
        {
          OFFSET -0.756579 -9.59872 12.1348
          CHANNELS 6 Xposition Yposition Zposition Zrotation Xrotation Yrotation
          End Site
          {
            OFFSET 0 0 0.1
          }
        }
      }
    }
  }
}
MOTION
Frames: 5
Frame Time: 0.020000
0 90.5966 0 -0 0 -0 0 4.93189 -1.1181 -0 0 -0 0 5.45428 1.04046 -0 0 -0 -9.96389e-18 5.81666 0.111686 -0 0 -0 -1.07264e-17 6.3178 -0.430704 -0 0 -0 -1.91593e-17 7.38567 -1.4624 -0 0 -0 -2.45986e-17 9.22288 -0.888062 -0 0 -0 -2.82008e-17 10.2464 1.53133 -0 0 -0 -1.25459e-17 4.64811 0.694664 -0 0 -0 -1.75924e-17 4.68175 0.4096 -0 0 -0 -1.9515e-17 4.6908 0.74295 -0 0 -0 1.19736 -7.38744 7.31601 -0 0 -0 12.5803 3.15559 -3.17425 -0 0 -0 28.3639 0.0580795 0.133078 -0 0 -0 23.5335 0.0481878 0.110415 -0 0 -0 -1.19736 -7.38743 7.31591 -0 0 -0 -12.5803 3.15559 -3.17425 -0 0 -0 -28.3639 0.0580795 0.133078 -0 0 -0 -23.5335 0.0481876 0.110415 -0 0 -0 8.96978 -4.08401 1.97395 -0 0 -0 -0.827718 -37.6515 -0.63625 -0 0 -0 -2.25899 -39.2341 -5.87393 -0 0 -0 0.756579 -9.59872 12.1348 -0 0 -0 -8.96978 -4.08401 1.97395 -0 0 -0 0.827718 -37.6515 -0.63625 -0 0 -0 2.25899 -39.2341 -5.87393 -0 0 -0 -0.756579 -9.59872 12.1348 -0 0 -0 
5.60279 90.6196 -62.9473 -0.907041 3.56177 -0.721255 0 4.93189 -1.1181 0.0184677 -2.29027 -0.25405 0 5.45428 1.04046 0.234935 -1.31556 -0.316507 -9.96389e-18 5.81666 0.111686 0.235802 -0.313757 -0.226511 -1.07264e-17 6.3178 -0.430704 0.235019 0.914214 -0.213346 -1.91593e-17 7.38567 -1.4624 0.176495 1.72769 -0.256712 -2.45986e-17 9.22288 -0.888062 0.146892 1.76279 -0.540367 -2.82008e-17 10.2464 1.53133 -0.0777121 0.746377 0.0212937 -1.25459e-17 4.64811 0.694664 -0.224352 -5.40385 -2.22506 -1.75924e-17 4.68175 0.4096 -0.640438 -2.9182 -1.14343 -1.9515e-17 4.6908 0.74295 -1.1348 -1.65639 2.64026 1.19736 -7.38744 7.31601 -3.57985 2.89458 0.409647 12.5803 3.15559 -3.17425 -87.834 13.1871 4.73908 28.3639 0.0580795 0.133078 1.89675 -0.142416 -9.17787 23.5335 0.0481878 0.110415 0.583819 -18.3249 -6.59654 -1.19736 -7.38743 7.31591 5.59644 3.47617 -0.587794 -12.5803 3.15559 -3.17425 84.1077 11.5025 -4.54891 -28.3639 0.0580795 0.133078 -2.17781 -0.189639 10.5498 -23.5335 0.0481876 0.110415 -1.87624 -17.7985 6.42629 8.96978 -4.08401 1.97395 -0.140271 -2.6636 -23.4333 -0.827718 -37.6515 -0.63625 -0.253854 0.94771 -0.0144427 -2.25899 -39.2341 -5.87393 1.4543 -1.49416 15.099 0.756579 -9.59872 12.1348 -3.50948e-16 -8.06882e-16 2.41677e-17 -8.96978 -4.08401 1.97395 1.84641 -5.26654 23.5244 0.827718 -37.6515 -0.63625 -0.276867 -1.03236 -0.0205152 2.25899 -39.2341 -5.87393 -0.598549 1.92535 -14.8245 -0.756579 -9.59872 12.1348 -2.09671e-16 -5.8325e-16 -1.27592e-14 
5.60297 90.6199 -62.9476 -0.887623 3.55525 -0.731362 0 4.93189 -1.1181 0.014888 -2.28235 -0.251692 0 5.45428 1.04046 0.231598 -1.3098 -0.31459 -9.96389e-18 5.81666 0.111686 0.233302 -0.309822 -0.224474 -1.07264e-17 6.3178 -0.430704 0.233307 0.914725 -0.211303 -1.91593e-17 7.38567 -1.4624 0.176194 1.72601 -0.254382 -2.45986e-17 9.22288 -0.888062 0.148422 1.76058 -0.538347 -2.82008e-17 10.2464 1.53133 -0.0773624 0.746875 0.0213192 -1.25459e-17 4.64811 0.694664 -0.219902 -5.37348 -2.21504 -1.75924e-17 4.68175 0.4096 -0.639387 -2.90922 -1.13881 -1.9515e-17 4.6908 0.74295 -1.151 -1.66274 2.64314 1.19736 -7.38744 7.31601 -3.57145 2.89401 0.41284 12.5803 3.15559 -3.17425 -87.8253 13.2162 4.73926 28.3639 0.0580795 0.133078 1.89939 -0.142829 -9.19073 23.5335 0.0481878 0.110415 0.55663 -18.324 -6.59177 -1.19736 -7.38743 7.31591 5.60001 3.47513 -0.587203 -12.5803 3.15559 -3.17425 84.104 11.4807 -4.54008 -28.3639 0.0580795 0.133078 -2.17988 -0.190012 10.5599 -23.5335 0.0481876 0.110415 -1.87665 -17.7543 6.41315 8.96978 -4.08401 1.97395 -0.160092 -2.65634 -23.4292 -0.827718 -37.6515 -0.63625 -0.252873 0.944046 -0.0143949 -2.25899 -39.2341 -5.87393 1.44661 -1.47966 15.0981 0.756579 -9.59872 12.1348 4.00645e-16 -7.83395e-16 6.804e-19 -8.96978 -4.08401 1.97395 1.82456 -5.25483 23.5302 0.827718 -37.6515 -0.63625 -0.2797 -1.04291 -0.0207507 2.25899 -39.2341 -5.87393 -0.591451 1.91563 -14.8269 -0.756579 -9.59872 12.1348 -5.85468e-16 -5.59762e-16 -1.27474e-14 
5.60385 90.6193 -62.9481 -0.887072 3.55509 -0.731653 0 4.93189 -1.1181 0.0157803 -2.27815 -0.251082 0 5.45428 1.04046 0.232479 -1.30741 -0.313922 -9.96389e-18 5.81666 0.111686 0.234138 -0.308825 -0.223662 -1.07264e-17 6.3178 -0.430704 0.234205 0.913503 -0.210502 -1.91593e-17 7.38567 -1.4624 0.177268 1.72326 -0.253723 -2.45986e-17 9.22288 -0.888062 0.149946 1.75668 -0.53809 -2.82008e-17 10.2464 1.53133 -0.0769978 0.74716 0.0213463 -1.25459e-17 4.64811 0.694664 -0.213496 -5.34296 -2.1984 -1.75924e-17 4.68175 0.4096 -0.635576 -2.89816 -1.13111 -1.9515e-17 4.6908 0.74295 -1.1539 -1.65624 2.65615 1.19736 -7.38744 7.31601 -3.55941 2.89284 0.414026 12.5803 3.15559 -3.17425 -87.8287 13.2465 4.73426 28.3639 0.0580795 0.133078 1.90199 -0.143236 -9.20342 23.5335 0.0481878 0.110415 0.556117 -18.319 -6.58226 -1.19736 -7.38743 7.31591 5.59336 3.47334 -0.586987 -12.5803 3.15559 -3.17425 84.1016 11.4547 -4.5292 -28.3639 0.0580795 0.133078 -2.18066 -0.190154 10.5637 -23.5335 0.0481876 0.110415 -1.87915 -17.6737 6.40481 8.96978 -4.08401 1.97395 -0.161833 -2.6488 -23.4304 -0.827718 -37.6515 -0.63625 -0.248593 0.928061 -0.0141858 -2.25899 -39.2341 -5.87393 1.45025 -1.47601 15.0977 0.756579 -9.59872 12.1348 3.57345e-17 -7.94798e-16 1.20838e-17 -8.96978 -4.08401 1.97395 1.81963 -5.25186 23.535 0.827718 -37.6515 -0.63625 -0.281668 -1.05025 -0.0209146 2.25899 -39.2341 -5.87393 -0.579029 1.91173 -14.8287 -0.756579 -9.59872 12.1348 -5.96354e-16 -5.59082e-16 -1.27471e-14 
5.60429 90.6186 -62.9489 -0.887072 3.55509 -0.731653 0 4.93189 -1.1181 0.0170724 -2.27405 -0.250041 0 5.45428 1.04046 0.233619 -1.30511 -0.312747 -9.96389e-18 5.81666 0.111686 0.235114 -0.308357 -0.2223 -1.07264e-17 6.3178 -0.430704 0.235017 0.91082 -0.209096 -1.91593e-17 7.38567 -1.4624 0.178228 1.7188 -0.252415 -2.45986e-17 9.22288 -0.888062 0.151426 1.75096 -0.537126 -2.82008e-17 10.2464 1.53133 -0.0766064 0.747813 0.0214869 -1.25459e-17 4.64811 0.694664 -0.208781 -5.3292 -2.18468 -1.75924e-17 4.68175 0.4096 -0.632695 -2.8848 -1.12477 -1.9515e-17 4.6908 0.74295 -1.14659 -1.63829 2.65927 1.19736 -7.38744 7.31601 -3.5531 2.8962 0.409937 12.5803 3.15559 -3.17425 -87.8225 13.2673 4.71985 28.3639 0.0580795 0.133078 1.90097 -0.143077 -9.19846 23.5335 0.0481878 0.110415 0.543151 -18.3123 -6.57926 -1.19736 -7.38743 7.31591 5.59616 3.4765 -0.583857 -12.5803 3.15559 -3.17425 84.0907 11.4279 -4.51836 -28.3639 0.0580795 0.133078 -2.18022 -0.190074 10.5616 -23.5335 0.0481876 0.110415 -1.88044 -17.597 6.40277 8.96978 -4.08401 1.97395 -0.162441 -2.644 -23.4332 -0.827718 -37.6515 -0.63625 -0.24555 0.916696 -0.0140365 -2.25899 -39.2341 -5.87393 1.45333 -1.4738 15.0969 0.756579 -9.59872 12.1348 2.48481e-17 -7.95139e-16 1.2424e-17 -8.96978 -4.08401 1.97395 1.81852 -5.25762 23.5405 0.827718 -37.6515 -0.63625 -0.279384 -1.04174 -0.0207244 2.25899 -39.2341 -5.87393 -0.57958 1.90746 -14.8291 -0.756579 -9.59872 12.1348 -9.82843e-16 -5.47004e-16 -1.27229e-14 
